# xmcd
#
# Track frame offsets: 
#        150
#        17124
#        40345
#        64533
#        97452
#        114810
#        135914
#        150753
#        180386
#        200569
#        233025
#        261210
#
# Disc length: 4042 seconds
#
# Revision: 0
# Processed by: cddbd v1.5.2PL0 Copyright (c) Steve Scherf et al.
# Submitted via: ExactAudioCopy v0.99pb5
#
DISCID=920fc80c
DTITLE=Franceso Più Trio - Live At Amigdala Theatre
DYEAR=2010
DGENRE=Blues
TTITLE0=If You Love Me Like You Say
TTITLE1=Good Stuff
TTITLE2=Hand It Over
TTITLE3=Henry
TTITLE4=Sticks And Stones
TTITLE5=Motherless Child
TTITLE6=Don't Start Me Talking
TTITLE7=Train To Narcao
TTITLE8=They're Red Hot
TTITLE9=All Along The Watchtower
TTITLE10=Am I Wrong
TTITLE11=Barcarolle
EXTD=
EXTT0=
EXTT1=
EXTT2=
EXTT3=
EXTT4=
EXTT5=
EXTT6=
EXTT7=
EXTT8=
EXTT9=
EXTT10=
EXTT11=
PLAYORDER=
